<?xml version="1.0" encoding="iso-8859-1"?>
<!-- Generator: Adobe Illustrator 16.0.0, SVG Export Plug-In . SVG Version: 6.00 Build 0)  -->
<!DOCTYPE svg PUBLIC "-//W3C//DTD SVG 1.1//EN" "http://www.w3.org/Graphics/SVG/1.1/DTD/svg11.dtd">
<svg version="1.1" id="Capa_1" xmlns="http://www.w3.org/2000/svg" xmlns:xlink="http://www.w3.org/1999/xlink" x="0px" y="0px"
	 width="31.85px" height="31.85px" viewBox="0 0 31.85 31.85" style="enable-background:new 0 0 31.85 31.85;" xml:space="preserve"
	>
<g>
	<g>
		<path d="M5.142,17.018c0.011-0.623-0.244-1.111-0.827-1.21c-0.447-0.075-0.816,0.13-0.965,0.229
			c0.006-0.131,0.013-0.275,0.017-0.358c0.005-0.112,0.203-0.172,0.298-0.263c0.058-0.054-0.001-0.197-0.001-0.197
			s-0.495,0.22-0.482,0.431c0.007,0.104,0.008,0.248,0.008,0.37c-0.139-0.093-0.433-0.243-0.847-0.225
			c-0.571,0.027-0.945,0.448-0.935,1.07c0.01,0.728,0.555,1.354,1.046,1.536H0v1.708h1.139v8.882h1.063v-8.882h12.652v8.882h1.063
			v-8.882H16.7v-1.708H4.126C4.608,18.243,5.133,17.731,5.142,17.018z M2.195,17.631c-0.216-0.278-0.151-0.672-0.151-0.672
			s0.145,0.363,0.293,0.59c0.149,0.227,0.404,0.406,0.404,0.406S2.411,17.907,2.195,17.631z"/>
		<path d="M27.368,2.858c-2.472,0-4.479,2.009-4.479,4.48s2.01,4.48,4.479,4.48c2.472,0,4.481-2.01,4.481-4.48
			C31.85,4.867,29.84,2.858,27.368,2.858z M27.368,11.415c-2.248,0-4.075-1.828-4.075-4.076s1.827-4.076,4.075-4.076
			s4.075,1.828,4.075,4.076S29.616,11.415,27.368,11.415z"/>
		<path d="M25.986,4.389L25.82,4.061l-0.18,0.092l0.166,0.329C25.865,4.449,25.927,4.419,25.986,4.389z"/>
		<path d="M24.096,7.406c0-0.068,0.006-0.135,0.01-0.202h-0.465V7.61h0.465C24.102,7.542,24.096,7.475,24.096,7.406z"/>
		<path d="M27.652,4.06V3.595h-0.404V4.06c0.066-0.003,0.135-0.01,0.203-0.01S27.586,4.057,27.652,4.06z"/>
		<path d="M30.895,5.871L30.803,5.69l-0.367,0.187c0.03,0.061,0.062,0.12,0.09,0.183L30.895,5.871z"/>
		<path d="M29.229,4.563c0.058,0.036,0.113,0.073,0.168,0.112L29.6,4.36l-0.17-0.111L29.229,4.563z"/>
		<path d="M24.257,5.427l0.333,0.229c0.037-0.057,0.071-0.115,0.11-0.17L24.372,5.26L24.257,5.427z"/>
		<path d="M28.832,10.463l0.248,0.491l0.182-0.093l-0.246-0.487C28.955,10.406,28.895,10.434,28.832,10.463z"/>
		<path d="M30.102,9.461l0.428,0.296l0.115-0.168l-0.422-0.291C30.186,9.354,30.143,9.406,30.102,9.461z"/>
		<path d="M30.797,7.204c0.004,0.067,0.012,0.134,0.012,0.202c0,0.069-0.008,0.136-0.012,0.204h0.465V7.204H30.797z"/>
		<path d="M27.248,10.753v0.465h0.404v-0.465c-0.066,0.003-0.133,0.01-0.201,0.01S27.314,10.755,27.248,10.753z"/>
		<path d="M25.302,10.657l0.171,0.109l0.297-0.46c-0.061-0.034-0.119-0.067-0.174-0.104L25.302,10.657z"/>
		<path d="M24.008,9.144L24.1,9.326l0.455-0.231c-0.033-0.058-0.068-0.118-0.099-0.178L24.008,9.144z"/>
		<polygon points="27.594,4.414 27.309,4.414 27.309,7.206 27.309,7.338 27.309,7.518 25.618,9.373 25.663,9.414 27.311,7.606 
			29.488,7.606 29.488,7.206 27.594,7.206 		"/>
		<polygon points="6.489,24.189 7.17,24.189 7.17,28.992 7.689,28.992 7.689,24.189 11.315,24.189 11.315,28.992 11.835,28.992 
			11.835,24.189 12.551,24.189 12.551,23.288 6.489,23.288 		"/>
		<circle cx="17.785" cy="6.928" r="2.914"/>
		<path d="M19.727,15.654l-1.574-0.024l0.58-5.53l-1.461,0.088l-0.223,2.756l-1.374-3.352l-3.237-0.41l-1.211,8.705l6.089,0.076
			l0.026,6.699v1.117h3.574v-1.117h-1.19V15.654L19.727,15.654z M16.139,15.639l-0.007,0.015h-0.59l0.055-2.544l0.885,2.529H16.139z
			"/>
	</g>
</g>
<g>
</g>
<g>
</g>
<g>
</g>
<g>
</g>
<g>
</g>
<g>
</g>
<g>
</g>
<g>
</g>
<g>
</g>
<g>
</g>
<g>
</g>
<g>
</g>
<g>
</g>
<g>
</g>
<g>
</g>
</svg>
